<svg width="17" height="17" viewBox="0 0 17 17" fill="none" xmlns="http://www.w3.org/2000/svg">
<g clip-path="url(#clip0_0_608)">
<path d="M11.4505 4.67145C9.78121 2.869 7.4322 2.9798 5.84251 3.8976C5.84251 3.8976 5.84251 3.8976 5.83802 3.9002C4.25282 4.81541 2.97529 6.79242 3.70158 9.13933C4.514 11.7598 7.06604 12.903 9.06336 13.3964C9.80382 13.5796 10.5468 13.456 11.1575 13.1034C11.7682 12.7508 12.2467 12.1692 12.4538 11.4389C13.0251 9.46249 13.3138 6.68528 11.4505 4.67145ZM8.87854 9.15615C8.09716 9.60728 7.09842 9.33966 6.64729 8.55829C6.19616 7.77692 6.46378 6.77817 7.24515 6.32704C8.02652 5.87592 9.02527 6.14353 9.4764 6.9249C9.92752 7.70628 9.65991 8.70503 8.87854 9.15615Z" fill="white"/>
</g>
<defs>
<clipPath id="clip0_0_608">
<rect width="12.0867" height="12.0867" fill="white" transform="translate(0 6.22252) scale(1.02963) rotate(-30)"/>
</clipPath>
</defs>
</svg>
