<svg width="61" height="61" viewBox="0 0 61 61" fill="none" xmlns="http://www.w3.org/2000/svg">
<path d="M2.27686 9.37459C4.55292 -0.469372 19.3758 -0.469372 21.6234 9.37459C22.9606 15.1501 19.2904 20.0436 16.1039 23.0879C13.771 25.307 10.1008 25.2786 7.76785 23.0879C4.60982 20.0436 0.939672 15.1501 2.27686 9.37459Z" stroke="#1D272F" stroke-width="3.96667"/>
<path d="M39.2628 43.5155C41.5389 33.6715 56.4471 33.6715 58.7232 43.5155C60.0603 49.291 56.3902 54.1845 53.1753 57.2288C50.8423 59.4479 47.1437 59.4195 44.8107 57.2288C41.5958 54.1845 37.9257 49.291 39.2628 43.5155Z" stroke="#1D272F" stroke-width="3.96667"/>
<path d="M30.5285 10.5126H38.1533C43.4167 10.5126 45.8635 17.0279 41.9088 20.4988L19.1767 40.3859C15.222 43.8285 17.6688 50.3437 22.9037 50.3437H30.5285" stroke="#1D272F" stroke-width="3.96667" stroke-linecap="round" stroke-linejoin="round"/>
<path d="M11.9961 11.9352H12.029" stroke="#1D272F" stroke-width="4.53333" stroke-linecap="round" stroke-linejoin="round"/>
<path d="M48.9823 46.0761H49.0152" stroke="#1D272F" stroke-width="4.53333" stroke-linecap="round" stroke-linejoin="round"/>
</svg>
