<svg width="24" height="24" viewBox="0 0 24 24" fill="none" xmlns="http://www.w3.org/2000/svg">
<path d="M24 12.27C24 11.48 23.9284 10.73 23.8058 10H12.2605V14.51H18.871C18.5747 15.99 17.7062 17.24 16.4189 18.09V21.09H20.3627C22.6717 19 24 15.92 24 12.27Z" fill="#4285F4"/>
<path d="M12.2606 24C15.571 24 18.3398 22.92 20.3628 21.09L16.419 18.09C15.3156 18.81 13.9158 19.25 12.2606 19.25C9.06269 19.25 6.35515 17.14 5.38453 14.29H1.31812V17.38C3.33089 21.3 7.46882 24 12.2606 24Z" fill="#34A853"/>
<path d="M5.38442 14.2899C5.12899 13.5699 4.99617 12.7999 4.99617 11.9999C4.99617 11.1999 5.13921 10.4299 5.38442 9.70987V6.61987H1.31801C0.480203 8.23987 0 10.0599 0 11.9999C0 13.9399 0.480203 15.7599 1.31801 17.3798L5.38442 14.2899Z" fill="#FBBC05"/>
<path d="M12.2606 4.74999C14.0691 4.74999 15.6834 5.35999 16.9605 6.54999L20.4548 3.12999C18.3398 1.19 15.571 0 12.2606 0C7.46882 0 3.33089 2.7 1.31812 6.61999L5.38453 9.70998C6.35515 6.85999 9.06269 4.74999 12.2606 4.74999Z" fill="#EA4335"/>
</svg>
