<svg width="25" height="25" viewBox="0 0 25 25" fill="none" xmlns="http://www.w3.org/2000/svg">
<path d="M4.51047 8.06795L4.97724 5.93054C5.44213 3.80168 7.53588 2.45848 9.66474 2.92337L11.8022 3.39014" stroke="#1D272F" stroke-width="1.29501" stroke-linecap="round" stroke-linejoin="round"/>
<path d="M16.9319 4.51039L19.0694 4.97715C21.1982 5.44205 22.5414 7.5358 22.0765 9.66466L21.6098 11.8021" stroke="#1D272F" stroke-width="1.29501" stroke-linecap="round" stroke-linejoin="round"/>
<path d="M20.3028 17.7869L20.0228 19.0693C19.5579 21.1982 17.4641 22.5414 15.3353 22.0765L14.0528 21.7964" stroke="#1D272F" stroke-width="1.29501" stroke-linecap="round" stroke-linejoin="round"/>
<path d="M8.06809 20.4898L5.93068 20.023C3.80183 19.5581 2.45862 17.4644 2.92352 15.3355L3.39028 13.1981" stroke="#1D272F" stroke-width="1.29501" stroke-linecap="round" stroke-linejoin="round"/>
<path d="M17.2416 11.2958L16.3081 15.5706C15.9347 17.2805 14.893 17.9488 13.1831 17.5754L9.76322 16.8285C8.05329 16.4551 7.38503 15.4135 7.75844 13.7035L8.69196 9.42873C9.06537 7.7188 10.107 7.05054 11.817 7.42395L15.2368 8.17077C16.9467 8.54418 17.615 9.58584 17.2416 11.2958Z" stroke="#1D272F" stroke-width="1.29501" stroke-linecap="round" stroke-linejoin="round"/>
<path d="M18.4848 13.8069L6.51527 11.1931" stroke="#1D272F" stroke-width="1.29501" stroke-linecap="round" stroke-linejoin="round"/>
</svg>
