<svg width="29" height="29" viewBox="0 0 29 29" fill="none" xmlns="http://www.w3.org/2000/svg">
<path d="M13.2869 4.98494L6.86739 8.69126C4.07896 10.3012 3.37637 12.9232 4.98628 15.7117L8.68817 22.1235C10.3025 24.9196 12.9246 25.6222 15.713 24.0123L22.1249 20.3104C24.9133 18.7005 25.6159 16.0784 24.006 13.29L20.2997 6.87048C18.6974 4.07763 16.0753 3.37504 13.2869 4.98494ZM17.8959 13.304L15.4062 14.7415L16.8436 17.2311C17.025 17.5452 16.9149 17.956 16.6008 18.1374C16.2867 18.3187 15.8759 18.2086 15.6945 17.8945L14.2571 15.4049L11.7675 16.8423C11.4534 17.0236 11.0425 16.9135 10.8612 16.5995C10.6799 16.2854 10.79 15.8745 11.104 15.6932L13.5937 14.2558L12.1563 11.7661C11.975 11.452 12.085 11.0412 12.3991 10.8599C12.7132 10.6785 13.124 10.7886 13.3054 11.1027L14.7428 13.5924L17.2325 12.155C17.5465 11.9736 17.9574 12.0837 18.1387 12.3978C18.32 12.7119 18.21 13.1227 17.8959 13.304Z" fill="#1D272F"/>
</svg>
