<svg width="24" height="20" viewBox="0 0 24 20" fill="none" xmlns="http://www.w3.org/2000/svg">
<path fill-rule="evenodd" clip-rule="evenodd" d="M12.25 -3.27835e-08C12.6642 -1.46777e-08 13 0.335786 13 0.75L13 3.0625C13 3.47671 12.6642 3.8125 12.25 3.8125C11.8358 3.8125 11.5 3.47671 11.5 3.0625L11.5 0.75C11.5 0.335786 11.8358 -5.08894e-08 12.25 -3.27835e-08ZM12.25 6.9375C12.6642 6.9375 13 7.27329 13 7.6875L13 12.3125C13 12.7267 12.6642 13.0625 12.25 13.0625C11.8358 13.0625 11.5 12.7267 11.5 12.3125L11.5 7.6875C11.5 7.27329 11.8358 6.9375 12.25 6.9375ZM12.25 16.1875C12.6642 16.1875 13 16.5233 13 16.9375L13 19.25C13 19.6642 12.6642 20 12.25 20C11.8358 20 11.5 19.6642 11.5 19.25L11.5 16.9375C11.5 16.5233 11.8358 16.1875 12.25 16.1875Z" fill="#A7A9B7"/>
</svg>
