<svg width="25" height="25" viewBox="0 0 25 25" fill="none" xmlns="http://www.w3.org/2000/svg">
<path d="M4.98619 7.07928L3.16956 15.3981C2.81482 17.0225 3.82339 17.9414 5.40103 17.444L7.66038 16.7371C8.15056 16.5843 8.88288 16.7174 9.2856 17.0472L13.2831 20.2759C13.6877 20.5972 14.4182 20.7388 14.9083 20.5861L19.0734 19.2742C19.6033 19.1033 20.1422 18.5223 20.2617 17.9751L22.0784 9.65632C22.4331 8.03189 21.4245 7.11297 19.8469 7.61044L17.5876 8.31733C17.0974 8.47005 16.3651 8.337 15.9623 8.00721L11.9629 4.78701C11.5584 4.46576 10.8279 4.32416 10.3377 4.47688L6.17271 5.78876C5.63418 5.95779 5.10382 6.54065 4.98619 7.07928Z" stroke="#1D272F" stroke-width="1.29501" stroke-linecap="round" stroke-linejoin="round"/>
<path d="M11.0526 5.0182L8.62542 16.1327" stroke="#1D272F" stroke-width="1.29501" stroke-linecap="round" stroke-linejoin="round"/>
<path d="M16.6935 8.59662L14.1954 20.036" stroke="#1D272F" stroke-width="1.29501" stroke-linecap="round" stroke-linejoin="round"/>
</svg>
