<svg width="17" height="21" viewBox="0 0 17 21" fill="none" xmlns="http://www.w3.org/2000/svg">
<path fill-rule="evenodd" clip-rule="evenodd" d="M10.3296 1.31517C10.2954 1.30526 10.2612 1.29558 10.2268 1.28615C12.7866 2.0733 14.6609 4.46583 14.6609 7.27488V10.2914C14.6609 10.9281 14.9323 11.8988 15.2454 12.4416L16.4458 14.4352C17.1347 15.5834 16.5815 17.076 15.3185 17.4935C14.0628 17.913 12.7795 18.2155 11.4839 18.4008C11.2294 19.8719 9.93911 21 8.39815 21C7.54225 21 6.74897 20.6451 6.18533 20.0815C5.74105 19.6372 5.42647 19.0502 5.31316 18.4024C4.01385 18.2172 2.72679 17.9142 1.46752 17.4935C0.110606 17.0342 -0.400847 15.6669 0.340238 14.4352L1.54059 12.4416C1.86416 11.8988 2.13554 10.9281 2.13554 10.2914V7.27488C2.13554 4.48139 3.97116 2.11097 6.50027 1.30575L6.46756 1.31517C6.77026 0.542767 7.52178 0 8.39856 0C9.27534 0 10.0269 0.542767 10.3296 1.31517Z" fill="#FD683D"/>
</svg>
