<svg width="50" height="35" viewBox="0 0 50 35" fill="none" xmlns="http://www.w3.org/2000/svg">
<path fill-rule="evenodd" clip-rule="evenodd" d="M31.0919 7.07186L42.2066 0.654794C43.1426 0.114396 43.5383 0.0158913 43.9861 0.00133307C44.434 -0.0132252 44.8576 0.100277 45.2381 0.336807C45.6187 0.573336 45.9121 0.856484 46.4525 1.79248L48.3234 5.03299C48.8638 5.96898 48.9623 6.36467 48.9769 6.81251C48.9914 7.26035 48.8779 7.68395 48.6414 8.06451C48.4049 8.44508 48.1217 8.7385 47.1857 9.2789L36.0711 15.696C35.1351 16.2364 34.7394 16.3349 34.2915 16.3494C33.8437 16.364 33.4201 16.2505 33.0395 16.0139C32.659 15.7774 32.3655 15.4943 31.8251 14.5583L29.9542 11.3178C29.4138 10.3818 29.3153 9.98609 29.3008 9.53825C29.2862 9.0904 29.3997 8.66681 29.6362 8.28624C29.8728 7.90568 30.1559 7.61226 31.0919 7.07186ZM31.5249 7.82194C30.7847 8.24927 30.5551 8.44835 30.3717 8.74351C30.2255 8.97873 30.1572 9.23347 30.1662 9.51027C30.1775 9.85761 30.2768 10.1448 30.7041 10.885L32.575 14.1255C33.0024 14.8656 33.2015 15.0952 33.4966 15.2787C33.7318 15.4248 33.9866 15.4931 34.2634 15.4841C34.6107 15.4728 34.8979 15.3735 35.6381 14.9462L46.7528 8.52913C47.4929 8.1018 47.7225 7.90272 47.9059 7.60757C48.0521 7.37235 48.1204 7.11761 48.1114 6.8408C48.1001 6.49347 48.0008 6.20627 47.5735 5.46611L45.7026 2.22561C45.2753 1.48545 45.0762 1.25587 44.781 1.07243C44.5458 0.926231 44.2911 0.857973 44.0143 0.866971C43.6669 0.878262 43.3797 0.977546 42.6396 1.40488L31.5249 7.82194ZM48.9778 4.43432L47.246 1.43463C47.246 1.43463 48.7014 1.35769 49.2368 2.28502C49.7722 3.21236 48.9778 4.43432 48.9778 4.43432Z" fill="white" fill-opacity="0.36"/>
<rect x="30.7298" y="9.19702" width="15.5868" height="6.63884" rx="1.38134" transform="rotate(-30 30.7298 9.19702)" fill="white"/>
<path fill-rule="evenodd" clip-rule="evenodd" d="M7.72822 21.966C7.76112 22.0629 7.82147 22.1675 7.94218 22.3766L11.276 28.151C11.3967 28.36 11.4571 28.4646 11.5246 28.5415C11.8017 28.8575 12.2419 28.9754 12.6398 28.8404C12.7368 28.8075 12.8413 28.7471 13.0504 28.6264C13.2594 28.5057 13.364 28.4453 13.4409 28.3778C13.7569 28.1007 13.8749 27.6606 13.7398 27.2626C13.7069 27.1657 13.6465 27.0611 13.5258 26.8521L10.1919 21.0777C10.0712 20.8686 10.0109 20.764 9.9434 20.6871C9.66629 20.3711 9.22611 20.2532 8.82813 20.3883C8.73122 20.4212 8.62668 20.4815 8.41761 20.6022C8.20854 20.7229 8.104 20.7833 8.02705 20.8508C7.71107 21.1279 7.59312 21.5681 7.72822 21.966ZM5.45669 26.211C5.33598 26.0019 5.27563 25.8974 5.24273 25.8005C5.10763 25.4025 5.22558 24.9623 5.54156 24.6852C5.61851 24.6177 5.72305 24.5574 5.93212 24.4367C6.14119 24.316 6.24573 24.2556 6.34264 24.2227C6.74062 24.0876 7.1808 24.2056 7.45791 24.5215C7.52539 24.5985 7.58575 24.703 7.70645 24.9121L10.0012 28.8867C10.1219 29.0958 10.1822 29.2003 10.2151 29.2972C10.3502 29.6952 10.2323 30.1354 9.91631 30.4125C9.83936 30.48 9.73483 30.5403 9.52575 30.661C9.31668 30.7817 9.21214 30.8421 9.11523 30.875C8.71725 31.0101 8.27708 30.8921 7.99996 30.5761C7.93248 30.4992 7.87213 30.3947 7.75142 30.1856L5.45669 26.211ZM2.78891 29.5171C2.82181 29.6141 2.88216 29.7186 3.00287 29.9277L4.30177 32.1774C4.42248 32.3865 4.48284 32.491 4.55032 32.568C4.82743 32.884 5.26761 33.0019 5.66559 32.8668C5.7625 32.8339 5.86704 32.7736 6.07611 32.6529C6.28518 32.5322 6.38972 32.4718 6.46666 32.4043C6.78265 32.1272 6.9006 31.687 6.7655 31.2891C6.7326 31.1921 6.67225 31.0876 6.55155 30.8785L6.55154 30.8785L5.25264 28.6288C5.13193 28.4197 5.07157 28.3152 5.00409 28.2382C4.72698 27.9222 4.28681 27.8043 3.88883 27.9394C3.79191 27.9723 3.68738 28.0326 3.4783 28.1533C3.26923 28.274 3.16469 28.3344 3.08775 28.4019C2.77176 28.679 2.65382 29.1192 2.78891 29.5171ZM0.0551971 33.0951C0.0880948 33.1921 0.148449 33.2966 0.269157 33.5057L0.702125 34.2556C0.822833 34.4647 0.883188 34.5692 0.950668 34.6461C1.22778 34.9621 1.66796 35.0801 2.06594 34.945C2.16285 34.9121 2.26739 34.8517 2.47646 34.731C2.68553 34.6103 2.79007 34.55 2.86702 34.4825C3.183 34.2054 3.30095 33.7652 3.16585 33.3672C3.13295 33.2703 3.0726 33.1658 2.95189 32.9567L2.51892 32.2068C2.39821 31.9977 2.33786 31.8931 2.27038 31.8162C1.99327 31.5002 1.55309 31.3823 1.15511 31.5174C1.0582 31.5503 0.953662 31.6106 0.744589 31.7313C0.535516 31.852 0.430979 31.9124 0.354033 31.9799C0.0380447 32.257 -0.0798993 32.6972 0.0551971 33.0951Z" fill="white"/>
<path fill-rule="evenodd" clip-rule="evenodd" d="M19.9746 16.0264C21.6503 15.0591 23.6335 14.7725 25.5145 15.2259C25.6574 15.2622 25.803 15.1767 25.8408 15.0342L26.2056 13.6473C26.2247 13.575 26.2142 13.4981 26.1764 13.4336C26.1387 13.3691 26.0768 13.3223 26.0045 13.3036C21.0534 12.0892 16.0249 14.9924 14.6011 19.8873C14.5811 19.9593 14.5907 20.0363 14.6276 20.1013C14.6645 20.1663 14.7258 20.2138 14.7979 20.2335L16.1817 20.6108C16.3241 20.6495 16.471 20.5662 16.5108 20.4242C17.0588 18.5683 18.2988 16.9939 19.9746 16.0264ZM21.6318 18.8969C22.5524 18.3653 23.6378 18.1949 24.677 18.4189C24.8199 18.4533 24.9642 18.3674 25.0022 18.2254L25.366 16.8391C25.3852 16.7663 25.3745 16.6888 25.3362 16.6239C25.2979 16.5591 25.2351 16.5123 25.1621 16.494C21.9678 15.7607 18.7495 17.6188 17.7875 20.7518C17.7667 20.8242 17.7759 20.9019 17.8129 20.9675C17.85 21.0331 17.9118 21.0811 17.9846 21.1007L19.3668 21.479C19.5088 21.5171 19.6553 21.4351 19.697 21.2941C20.0224 20.2828 20.7119 19.4285 21.6318 18.8969ZM24.5253 20.0336C24.5455 19.9608 24.5349 19.8829 24.4957 19.8182C24.4566 19.7536 24.3926 19.7079 24.3187 19.6921C22.8831 19.4331 21.4704 20.2488 20.9769 21.6215C20.9536 21.6934 20.9611 21.7717 20.9975 21.8379C21.0339 21.9041 21.0959 21.9524 21.1691 21.9713L23.5597 22.6234C23.6299 22.6426 23.7048 22.633 23.7678 22.5966C23.8307 22.5602 23.8765 22.5002 23.895 22.4298L24.5253 20.0336Z" fill="white"/>
</svg>
