<svg width="20" height="21" viewBox="0 0 20 21" fill="none" xmlns="http://www.w3.org/2000/svg">
<path fill-rule="evenodd" clip-rule="evenodd" d="M4.75 6.75C4.75 5.13987 5.00031 3.85912 5.70907 2.97924C6.38962 2.13439 7.62836 1.5 10 1.5C12.3716 1.5 13.6104 2.13439 14.2909 2.97924C14.9997 3.85912 15.25 5.13987 15.25 6.75V8.75C15.25 8.75045 15.25 8.75091 15.25 8.75136C15.168 8.75045 15.0847 8.75 15 8.75H5C4.91533 8.75 4.832 8.75045 4.75 8.75136C4.75 8.75091 4.75 8.75045 4.75 8.75V6.75ZM3.25543 8.84074C3.25185 8.81099 3.25 8.78071 3.25 8.75V6.75C3.25 5.05013 3.49969 3.33088 4.54093 2.03826C5.61038 0.710615 7.37164 0 10 0C12.6284 0 14.3896 0.710615 15.4591 2.03826C16.5003 3.33088 16.75 5.05013 16.75 6.75V8.75C16.75 8.78071 16.7482 8.81099 16.7446 8.84074C19.3029 9.16187 20 10.4103 20 13.75V15.75C20 19.75 19 20.75 15 20.75H5C1 20.75 0 19.75 0 15.75V13.75C0 10.4103 0.697114 9.16187 3.25543 8.84074Z" fill="#FD683D"/>
</svg>
