<svg width="22" height="22" viewBox="0 0 22 22" fill="none" xmlns="http://www.w3.org/2000/svg">
<path d="M12.8334 4.58333C12.8334 3.575 12.0084 2.75 11 2.75C9.99171 2.75 9.16671 3.575 9.16671 4.58333C9.16671 5.59167 9.99171 6.41667 11 6.41667C12.0084 6.41667 12.8334 5.59167 12.8334 4.58333Z" fill="#151B33"/>
<path d="M12.8334 17.4166C12.8334 16.4083 12.0084 15.5833 11 15.5833C9.99171 15.5833 9.16671 16.4083 9.16671 17.4166C9.16671 18.4249 9.99171 19.2499 11 19.2499C12.0084 19.2499 12.8334 18.4249 12.8334 17.4166Z" fill="#151B33"/>
<path d="M12.8334 11.0001C12.8334 9.99175 12.0084 9.16675 11 9.16675C9.99171 9.16675 9.16671 9.99175 9.16671 11.0001C9.16671 12.0084 9.99171 12.8334 11 12.8334C12.0084 12.8334 12.8334 12.0084 12.8334 11.0001Z" fill="#151B33"/>
</svg>
