<svg width="24" height="25" viewBox="0 0 24 25" fill="none" xmlns="http://www.w3.org/2000/svg">
<path d="M18.6747 23.0397C17.3873 24.3021 15.9669 24.1053 14.613 23.5101C13.1736 22.9029 11.8576 22.8645 10.3375 23.5101C8.44434 24.3357 7.43959 24.0957 6.29944 23.0397C-0.137615 16.3438 0.812505 6.14386 8.12842 5.75986C9.90277 5.85586 11.1451 6.75105 12.1902 6.82545C13.7436 6.50626 15.2306 5.59187 16.8933 5.71187C18.8909 5.87506 20.385 6.67186 21.3826 8.10464C17.2733 10.6006 18.2472 16.0726 22.0215 17.6085C21.2662 19.6125 20.2971 21.5925 18.6724 23.0565L18.6747 23.0397ZM12.0477 5.68787C11.8553 2.7119 14.2424 0.263923 16.9883 0.0239256C17.366 3.45589 13.9004 6.02386 12.0477 5.68787Z" fill="white"/>
</svg>
