<svg width="20" height="20" viewBox="0 0 20 20" fill="none" xmlns="http://www.w3.org/2000/svg">
<path d="M4.50829 7.95833L9.52077 5.44584C12.8958 3.76251 14.2749 5.14167 12.5874 8.51249L11.8416 9.99999L12.5874 11.4875C14.2749 14.8583 12.8916 16.2416 9.52077 14.5541L4.50829 12.05C2.26246 10.9208 2.2583 9.08332 4.50829 7.95833ZM6.61661 10.3333L9.7916 10.3417C9.9166 10.3417 10.0249 10.2917 10.1041 10.2125C10.1833 10.1333 10.2333 10.025 10.2333 9.89999C10.2333 9.65832 10.0333 9.45832 9.7916 9.45832L6.61661 9.44999C6.37495 9.44999 6.17495 9.64999 6.17495 9.89165C6.17495 10.1333 6.37495 10.3333 6.61661 10.3333Z" fill="white"/>
</svg>
