<svg width="50" height="35" viewBox="0 0 50 35" fill="none" xmlns="http://www.w3.org/2000/svg">
<path fill-rule="evenodd" clip-rule="evenodd" d="M31.0919 7.07186L42.2066 0.654794C43.1426 0.114396 43.5383 0.0158923 43.9861 0.00133403C44.434 -0.0132242 44.8576 0.100278 45.2381 0.336808C45.6187 0.573336 45.9121 0.856485 46.4525 1.79248L48.3234 5.03299C48.8638 5.96898 48.9623 6.36466 48.9769 6.81251C48.9914 7.26035 48.8779 7.68395 48.6414 8.06451C48.4049 8.44508 48.1217 8.7385 47.1857 9.2789L36.0711 15.696C35.1351 16.2364 34.7394 16.3349 34.2915 16.3494C33.8437 16.364 33.4201 16.2505 33.0395 16.0139C32.659 15.7774 32.3655 15.4943 31.8251 14.5583L29.9542 11.3178C29.4138 10.3818 29.3153 9.98609 29.3008 9.53825C29.2862 9.0904 29.3997 8.66681 29.6362 8.28624C29.8728 7.90568 30.1559 7.61226 31.0919 7.07186ZM31.5249 7.82194C30.7848 8.24927 30.5552 8.44835 30.3718 8.74351C30.2256 8.97873 30.1573 9.23347 30.1663 9.51027C30.1776 9.85761 30.2769 10.1448 30.7042 10.885L32.5751 14.1255C33.0024 14.8656 33.2015 15.0952 33.4967 15.2787C33.7319 15.4248 33.9866 15.4931 34.2634 15.4841C34.6108 15.4728 34.898 15.3735 35.6381 14.9462L46.7528 8.52913C47.493 8.1018 47.7226 7.90273 47.906 7.60757C48.0522 7.37235 48.1205 7.11761 48.1115 6.8408C48.1002 6.49347 48.0009 6.20627 47.5735 5.46611L45.7026 2.22561C45.2753 1.48545 45.0762 1.25587 44.7811 1.07243C44.5459 0.926231 44.2911 0.857974 44.0143 0.866971C43.667 0.878263 43.3798 0.977547 42.6396 1.40488L31.5249 7.82194ZM48.9779 4.43432L47.246 1.43463C47.246 1.43463 48.7014 1.35769 49.2368 2.28502C49.7722 3.21236 48.9779 4.43432 48.9779 4.43432Z" fill="white" fill-opacity="0.36"/>
<rect x="30.7297" y="9.19702" width="15.5868" height="6.63884" rx="1.38134" transform="rotate(-30 30.7297 9.19702)" fill="white"/>
<path fill-rule="evenodd" clip-rule="evenodd" d="M7.72817 21.9661C7.76107 22.063 7.82142 22.1675 7.94213 22.3766L11.276 28.151C11.3967 28.3601 11.457 28.4646 11.5245 28.5415C11.8016 28.8575 12.2418 28.9755 12.6398 28.8404C12.7367 28.8075 12.8412 28.7471 13.0503 28.6264C13.2594 28.5057 13.3639 28.4454 13.4409 28.3779C13.7569 28.1008 13.8748 27.6606 13.7397 27.2626C13.7068 27.1657 13.6465 27.0612 13.5257 26.8521L10.1919 21.0777C10.0712 20.8686 10.0108 20.7641 9.94335 20.6871C9.66624 20.3711 9.22607 20.2532 8.82809 20.3883C8.73117 20.4212 8.62664 20.4815 8.41756 20.6023C8.20849 20.723 8.10395 20.7833 8.02701 20.8508C7.71102 21.1279 7.59307 21.5681 7.72817 21.9661ZM5.45658 26.211C5.33587 26.002 5.27552 25.8974 5.24262 25.8005C5.10752 25.4025 5.22547 24.9623 5.54145 24.6852C5.6184 24.6178 5.72294 24.5574 5.93201 24.4367C6.14108 24.316 6.24562 24.2556 6.34253 24.2227C6.74051 24.0876 7.18069 24.2056 7.4578 24.5216C7.52528 24.5985 7.58563 24.7031 7.70634 24.9121L10.0011 28.8867C10.1218 29.0958 10.1821 29.2003 10.215 29.2972C10.3501 29.6952 10.2322 30.1354 9.9162 30.4125C9.83925 30.48 9.73472 30.5403 9.52564 30.661C9.31657 30.7818 9.21203 30.8421 9.11512 30.875C8.71714 31.0101 8.27696 30.8922 7.99985 30.5762C7.93237 30.4992 7.87202 30.3947 7.75131 30.1856L5.45658 26.211ZM2.7888 29.5172C2.8217 29.6141 2.88205 29.7186 3.00276 29.9277L4.30166 32.1775C4.42237 32.3865 4.48273 32.4911 4.55021 32.568C4.82732 32.884 5.26749 33.0019 5.66547 32.8669C5.76239 32.834 5.86692 32.7736 6.076 32.6529C6.28507 32.5322 6.38961 32.4718 6.46655 32.4043C6.78254 32.1272 6.90049 31.6871 6.76539 31.2891C6.73249 31.1922 6.67214 31.0876 6.55143 30.8786L5.25253 28.6288C5.13182 28.4197 5.07146 28.3152 5.00398 28.2382C4.72687 27.9222 4.2867 27.8043 3.88871 27.9394C3.7918 27.9723 3.68726 28.0327 3.47819 28.1534C3.26912 28.2741 3.16458 28.3344 3.08764 28.4019C2.77165 28.679 2.6537 29.1192 2.7888 29.5172ZM0.0552131 33.0952C0.0881108 33.1921 0.148465 33.2966 0.269173 33.5057L0.702141 34.2556C0.822849 34.4647 0.883203 34.5692 0.950684 34.6462C1.2278 34.9622 1.66797 35.0801 2.06595 34.945C2.16287 34.9121 2.2674 34.8518 2.47647 34.731C2.68555 34.6103 2.79008 34.55 2.86703 34.4825C3.18302 34.2054 3.30096 33.7652 3.16587 33.3672C3.13297 33.2703 3.07261 33.1658 2.95191 32.9567L2.51894 32.2068C2.39823 31.9977 2.33788 31.8932 2.2704 31.8162C1.99328 31.5002 1.55311 31.3823 1.15513 31.5174C1.05821 31.5503 0.953678 31.6106 0.744605 31.7314C0.535532 31.8521 0.430995 31.9124 0.354049 31.9799C0.0380608 32.257 -0.0798833 32.6972 0.0552131 33.0952Z" fill="white"/>
<path fill-rule="evenodd" clip-rule="evenodd" d="M19.9746 16.0264C21.6503 15.0591 23.6335 14.7725 25.5145 15.2259C25.6574 15.2622 25.803 15.1767 25.8408 15.0342L26.2056 13.6473C26.2247 13.575 26.2142 13.4981 26.1764 13.4336C26.1387 13.3691 26.0768 13.3223 26.0045 13.3036C21.0534 12.0892 16.0249 14.9924 14.6011 19.8873C14.5811 19.9593 14.5907 20.0363 14.6276 20.1013C14.6645 20.1663 14.7258 20.2138 14.7979 20.2335L16.1817 20.6108C16.3241 20.6495 16.471 20.5662 16.5108 20.4242C17.0588 18.5683 18.2988 16.9939 19.9746 16.0264ZM21.6318 18.8969C22.5524 18.3653 23.6378 18.1949 24.677 18.4189C24.8199 18.4533 24.9642 18.3674 25.0022 18.2254L25.366 16.8391C25.3852 16.7663 25.3745 16.6888 25.3362 16.6239C25.2979 16.5591 25.2351 16.5123 25.1621 16.494C21.9678 15.7607 18.7495 17.6188 17.7875 20.7518C17.7667 20.8242 17.7759 20.9019 17.8129 20.9675C17.85 21.0331 17.9118 21.0811 17.9846 21.1007L19.3668 21.479C19.5088 21.5171 19.6553 21.4351 19.697 21.2941C20.0224 20.2828 20.7119 19.4285 21.6318 18.8969ZM24.5253 20.0336C24.5456 19.9608 24.5349 19.8829 24.4958 19.8182C24.4566 19.7536 24.3926 19.7079 24.3187 19.6921C22.8831 19.4331 21.4704 20.2488 20.9769 21.6215C20.9536 21.6934 20.9611 21.7717 20.9975 21.8379C21.0339 21.9041 21.096 21.9524 21.1691 21.9713L23.5597 22.6234C23.6299 22.6426 23.7048 22.633 23.7678 22.5966C23.8307 22.5602 23.8766 22.5002 23.895 22.4298L24.5253 20.0336Z" fill="white"/>
</svg>
