<svg width="29" height="29" viewBox="0 0 29 29" fill="none" xmlns="http://www.w3.org/2000/svg">
<path d="M10.4949 7.52773C7.95928 8.99168 7.08833 12.2421 8.55228 14.7777L9.83047 16.9916C10.1003 17.4589 10.3124 18.2863 10.3049 18.8218L10.2687 20.7936C10.2467 22.0115 11.2015 22.7983 12.3919 22.5604C16.3305 21.7573 19.8926 19.7007 22.5575 16.6914C23.3075 15.8498 23.081 14.5199 22.0889 13.9692L20.3632 13.0146C19.9034 12.749 19.2929 12.1515 19.0231 11.6843L17.7449 9.47036C16.2854 6.94239 13.0229 6.06821 10.4949 7.52773Z" stroke="white" stroke-width="1.29501" stroke-miterlimit="10" stroke-linecap="round"/>
<path d="M12.0404 6.93211C11.7631 7.00028 11.487 7.08818 11.2165 7.20349C10.4281 7.53616 9.75424 7.99668 9.20601 8.56855C9.10087 7.87341 9.42245 7.15662 10.0659 6.78511C10.7094 6.41359 11.491 6.4935 12.0404 6.93211Z" stroke="white" stroke-width="1.29501" stroke-miterlimit="10" stroke-linecap="round" stroke-linejoin="round"/>
<path d="M19.9359 18.5729C20.6656 19.8369 20.2285 21.4681 18.9645 22.1979C18.3364 22.5606 17.6038 22.6362 16.9513 22.4614C16.2988 22.2866 15.7022 21.8547 15.3395 21.2266" stroke="white" stroke-width="1.29501" stroke-miterlimit="10"/>
</svg>
