<svg width="26" height="26" viewBox="0 0 26 26" fill="none" xmlns="http://www.w3.org/2000/svg">
<path d="M11.5979 7.39894C11.1618 6.64345 10.1868 6.3822 9.43126 6.81838C8.67578 7.25456 8.41453 8.22956 8.85071 8.98505C9.28689 9.74054 10.2619 10.0018 11.0174 9.56561C11.7729 9.12943 12.0341 8.15443 11.5979 7.39894Z" fill="#151B33"/>
<path d="M17.1493 17.0143C16.7131 16.2588 15.7381 15.9976 14.9826 16.4338C14.2271 16.8699 13.9659 17.8449 14.4021 18.6004C14.8383 19.3559 15.8133 19.6172 16.5687 19.181C17.3242 18.7448 17.5855 17.7698 17.1493 17.0143Z" fill="#151B33"/>
<path d="M14.3736 12.2069C13.9375 11.4514 12.9625 11.1901 12.207 11.6263C11.4515 12.0625 11.1902 13.0375 11.6264 13.793C12.0626 14.5485 13.0376 14.8097 13.7931 14.3735C14.5486 13.9374 14.8098 12.9624 14.3736 12.2069Z" fill="#151B33"/>
</svg>
