<svg width="25" height="25" viewBox="0 0 25 25" fill="none" xmlns="http://www.w3.org/2000/svg">
<path d="M9.21953 13.8705C8.97869 14.9734 9.63093 16.0474 10.6825 16.277L12.8285 16.7457C13.7433 16.9454 14.657 16.3299 14.8661 15.3723C15.0939 14.3292 14.7211 13.8627 14.0979 13.4758L10.9138 11.5264C10.2907 11.1395 9.91781 10.6729 10.1456 9.62988C10.3547 8.67232 11.2684 8.05673 12.1832 8.25651L14.3292 8.72514C15.3808 8.95478 16.033 10.0288 15.7922 11.1317" stroke="#1D272F" stroke-width="1.29501" stroke-linecap="round" stroke-linejoin="round"/>
<path d="M13.6202 7.37016L11.3798 17.6297" stroke="#1D272F" stroke-width="1.29501" stroke-linecap="round" stroke-linejoin="round"/>
<path d="M10.633 21.05C15.3548 22.0812 20.0185 19.0893 21.0496 14.3674C22.0808 9.64559 19.0889 4.98189 14.367 3.95074C9.64521 2.9196 4.9815 5.9115 3.95036 10.6333C2.91922 15.3552 5.91112 20.0189 10.633 21.05Z" stroke="#1D272F" stroke-width="1.29501" stroke-linecap="round" stroke-linejoin="round"/>
</svg>
