<svg width="25" height="28" viewBox="0 0 25 28" fill="none" xmlns="http://www.w3.org/2000/svg">
<path fill-rule="evenodd" clip-rule="evenodd" d="M24.9299 24.4643C25.0548 25.4404 24.3648 26.3329 23.3888 26.4578C20.3493 26.8468 18.0484 27.5903 17.3739 27.8665C16.4632 28.2395 15.4227 27.8036 15.0498 26.8929C14.6769 25.9823 15.1128 24.9418 16.0234 24.5689C17.0063 24.1664 19.6114 23.3487 22.9364 22.9232C23.9125 22.7983 24.805 23.4883 24.9299 24.4643Z" fill="#1D272F"/>
<path fill-rule="evenodd" clip-rule="evenodd" d="M23.1245 4.82461C23.6935 5.62742 23.504 6.73953 22.7012 7.30856C17.7316 10.831 13.2511 16.0058 11.6591 18.1247C11.068 18.9114 9.95105 19.07 9.16434 18.4789C8.37762 17.8878 8.21904 16.7709 8.81013 15.9842C10.533 13.6911 15.2678 8.20948 20.6406 4.4013C21.4434 3.83227 22.5555 4.02179 23.1245 4.82461Z" fill="#1D272F"/>
<path fill-rule="evenodd" clip-rule="evenodd" d="M2.56525 0.0234195C3.53649 0.181529 4.19567 1.09705 4.03756 2.06829C3.6615 4.37837 3.56348 7.25842 3.56348 8.3999C3.56348 9.38392 2.76577 10.1816 1.78174 10.1816C0.797712 10.1816 0 9.38392 0 8.3999C0 7.16573 0.100872 4.0727 0.520379 1.49573C0.678488 0.524485 1.59401 -0.13469 2.56525 0.0234195Z" fill="#1D272F"/>
</svg>
