<svg width="24" height="24" viewBox="0 0 24 24" fill="none" xmlns="http://www.w3.org/2000/svg">
<path d="M8.49997 18.9998H7.99997C3.99998 18.9998 1.99998 17.9998 1.99998 12.9999V7.99992C1.99998 3.99996 3.99998 1.99998 7.99997 1.99998H16C20 1.99998 21.9999 3.99996 21.9999 7.99992V12.9999C21.9999 16.9998 20 18.9998 16 18.9998H15.5C15.19 18.9998 14.89 19.1498 14.7 19.3998L13.2 21.3998C12.54 22.2798 11.46 22.2798 10.8 21.3998L9.29997 19.3998C9.13997 19.1798 8.76997 18.9998 8.49997 18.9998Z" stroke="#1D272F" stroke-width="1.5" stroke-miterlimit="10" stroke-linecap="round" stroke-linejoin="round"/>
<path d="M15.9964 10.9999H16.0054" stroke="#1D272F" stroke-width="2" stroke-linecap="round" stroke-linejoin="round"/>
<path d="M11.9954 10.9999H12.0043" stroke="#1D272F" stroke-width="2" stroke-linecap="round" stroke-linejoin="round"/>
<path d="M7.99443 10.9999H8.00341" stroke="#1D272F" stroke-width="2" stroke-linecap="round" stroke-linejoin="round"/>
</svg>
