<svg width="50" height="35" viewBox="0 0 50 35" fill="none" xmlns="http://www.w3.org/2000/svg">
<path fill-rule="evenodd" clip-rule="evenodd" d="M31.0914 7.07176L42.2059 0.654785C43.1419 0.114394 43.5376 0.0158911 43.9854 0.00133306C44.4332 -0.013225 44.8568 0.100275 45.2374 0.336802C45.6179 0.573328 45.9114 0.856473 46.4517 1.79246L48.3226 5.03291C48.863 5.9689 48.9615 6.36458 48.9761 6.81241C48.9906 7.26025 48.8771 7.68384 48.6406 8.0644C48.4041 8.44496 48.1209 8.73838 47.185 9.27877L36.0704 15.6957C35.1344 16.2361 34.7388 16.3346 34.2909 16.3492C33.8431 16.3638 33.4195 16.2503 33.0389 16.0137C32.6584 15.7772 32.365 15.4941 31.8246 14.5581L29.9537 11.3176C29.4133 10.3816 29.3148 9.98595 29.3002 9.53811C29.2857 9.09028 29.3992 8.66668 29.6357 8.28613C29.8722 7.90557 30.1554 7.61215 31.0914 7.07176ZM31.5243 7.82192C30.7841 8.24925 30.5546 8.44832 30.3711 8.74347C30.2249 8.97869 30.1567 9.23343 30.1657 9.51023C30.177 9.85756 30.2762 10.1448 30.7036 10.8849L32.5744 14.1254C33.0018 14.8655 33.2008 15.0951 33.496 15.2785C33.7312 15.4247 33.9859 15.493 34.2627 15.484C34.6101 15.4727 34.8973 15.3734 35.6374 14.9461L46.7519 8.5291C47.4921 8.10178 47.7217 7.9027 47.9051 7.60755C48.0513 7.37234 48.1196 7.1176 48.1106 6.8408C48.0993 6.49347 48 6.20627 47.5727 5.46613L45.7018 2.22567C45.2745 1.48552 45.0754 1.25594 44.7802 1.0725C44.545 0.926309 44.2903 0.858051 44.0135 0.86705C43.6662 0.87834 43.379 0.977624 42.6388 1.40495L31.5243 7.82192ZM49.2359 2.28525C49.7713 3.21257 48.977 4.43452 48.977 4.43452L47.2452 1.43487C47.2452 1.43487 48.7006 1.35793 49.2359 2.28525Z" fill="black" fill-opacity="0.36"/>
<rect x="30.7292" y="9.19738" width="15.5866" height="6.63874" rx="1.38134" transform="rotate(-30 30.7292 9.19738)" fill="black"/>
<path fill-rule="evenodd" clip-rule="evenodd" d="M7.72811 21.9662C7.76101 22.0631 7.82136 22.1677 7.94207 22.3767L11.2759 28.1511C11.3966 28.3601 11.4569 28.4647 11.5244 28.5416C11.8015 28.8576 12.2417 28.9755 12.6397 28.8404C12.7366 28.8075 12.8411 28.7472 13.0502 28.6265C13.2593 28.5058 13.3638 28.4454 13.4407 28.3779C13.7567 28.1008 13.8747 27.6607 13.7396 27.2627C13.7067 27.1658 13.6463 27.0612 13.5256 26.8522L10.1918 21.0779C10.0711 20.8688 10.0107 20.7642 9.94326 20.6873C9.66615 20.3713 9.22599 20.2534 8.82801 20.3885C8.7311 20.4214 8.62656 20.4817 8.41749 20.6024C8.20842 20.7231 8.10389 20.7835 8.02694 20.851C7.71096 21.1281 7.59302 21.5682 7.72811 21.9662ZM5.45661 26.2111C5.33591 26.0021 5.27555 25.8975 5.24266 25.8006C5.10756 25.4026 5.2255 24.9625 5.54149 24.6854C5.61843 24.6179 5.72297 24.5575 5.93204 24.4368C6.14111 24.3161 6.24564 24.2558 6.34255 24.2229C6.74053 24.0878 7.1807 24.2057 7.45781 24.5217C7.52529 24.5986 7.58564 24.7032 7.70635 24.9122L10.001 28.8868C10.1218 29.0958 10.1821 29.2004 10.215 29.2973C10.3501 29.6953 10.2322 30.1354 9.91617 30.4125C9.83923 30.48 9.73469 30.5404 9.52562 30.6611C9.31655 30.7818 9.21201 30.8421 9.1151 30.875C8.71713 31.0101 8.27696 30.8922 7.99985 30.5762C7.93237 30.4993 7.87202 30.3947 7.75131 30.1857L5.45661 26.2111ZM2.78887 29.5172C2.82177 29.6141 2.88212 29.7187 3.00283 29.9277L4.30171 32.1775C4.42242 32.3865 4.48277 32.4911 4.55025 32.568C4.82736 32.884 5.26753 33.0019 5.66551 32.8669C5.76242 32.834 5.86695 32.7736 6.07602 32.6529C6.28509 32.5322 6.38963 32.4718 6.46657 32.4044C6.78256 32.1272 6.9005 31.6871 6.76541 31.2891C6.73251 31.1922 6.67216 31.0877 6.55145 30.8786L5.25256 28.6289C5.13186 28.4198 5.0715 28.3152 5.00402 28.2383C4.72691 27.9223 4.28675 27.8044 3.88877 27.9395C3.79186 27.9724 3.68732 28.0327 3.47825 28.1534C3.26918 28.2741 3.16465 28.3345 3.0877 28.402C2.77172 28.6791 2.65378 29.1192 2.78887 29.5172ZM0.0551963 33.0952C0.0880935 33.1921 0.148447 33.2966 0.269153 33.5057L0.702115 34.2556C0.822822 34.4647 0.883175 34.5692 0.950655 34.6461C1.22776 34.9621 1.66793 35.0801 2.06591 34.945C2.16282 34.9121 2.26735 34.8517 2.47642 34.731C2.68549 34.6103 2.79003 34.55 2.86698 34.4825C3.18296 34.2054 3.3009 33.7652 3.16581 33.3672C3.13291 33.2703 3.07256 33.1658 2.95185 32.9567L2.51889 32.2068C2.39818 31.9977 2.33783 31.8932 2.27035 31.8162C1.99324 31.5003 1.55307 31.3823 1.1551 31.5174C1.05818 31.5503 0.953648 31.6107 0.744578 31.7314C0.535508 31.8521 0.430973 31.9124 0.354028 31.9799C0.0380442 32.257 -0.0798982 32.6972 0.0551963 33.0952Z" fill="black"/>
<path fill-rule="evenodd" clip-rule="evenodd" d="M19.9743 16.0262C21.6499 15.0588 23.6332 14.7723 25.5141 15.2257C25.657 15.262 25.8025 15.1765 25.8403 15.034L26.2051 13.6471C26.2242 13.5748 26.2137 13.498 26.176 13.4335C26.1383 13.369 26.0764 13.3222 26.004 13.3034C21.0531 12.089 16.0246 14.9922 14.6009 19.887C14.5809 19.959 14.5904 20.036 14.6273 20.101C14.6643 20.166 14.7256 20.2135 14.7977 20.2332L16.1814 20.6105C16.3238 20.6493 16.4707 20.5659 16.5105 20.4239C17.0585 18.5681 18.2985 16.9937 19.9743 16.0262ZM21.6314 18.8965C22.552 18.365 23.6373 18.1946 24.6765 18.4185C24.8195 18.453 24.9638 18.3671 25.0017 18.2251L25.3655 16.8388C25.3848 16.7659 25.3741 16.6884 25.3357 16.6236C25.2974 16.5587 25.2347 16.512 25.1616 16.4937C21.9674 15.7604 18.7492 17.6185 17.7871 20.7514C17.7663 20.8238 17.7755 20.9016 17.8126 20.9672C17.8496 21.0328 17.9115 21.0808 17.9842 21.1004L19.3664 21.4786C19.5084 21.5168 19.6549 21.4347 19.6966 21.2937C20.022 20.2824 20.7116 19.4281 21.6314 18.8965ZM24.5249 20.0332C24.5451 19.9604 24.5344 19.8825 24.4953 19.8179C24.4562 19.7532 24.3922 19.7076 24.3183 19.6917C22.8827 19.4328 21.47 20.2484 20.9765 21.6211C20.9532 21.693 20.9607 21.7713 20.9971 21.8375C21.0335 21.9037 21.0956 21.952 21.1687 21.9709L23.5593 22.623C23.6294 22.6422 23.7043 22.6326 23.7673 22.5962C23.8303 22.5598 23.8761 22.4998 23.8945 22.4294L24.5249 20.0332Z" fill="black"/>
</svg>
