<svg width="20" height="18" viewBox="0 0 20 18" fill="none" xmlns="http://www.w3.org/2000/svg">
<path d="M0 4.50745V14.3806C0 16.3086 1.36987 17.1001 3.034 16.1462L5.41858 14.7865C5.93609 14.4923 6.79859 14.4618 7.33639 14.7358L12.6636 17.4045C13.2014 17.6683 14.064 17.648 14.5815 17.3537L18.9752 14.8373C19.5333 14.5125 20 13.7211 20 13.0716V3.19847C20 1.27051 18.6302 0.479032 16.966 1.43286L14.5815 2.79258C14.064 3.08685 13.2014 3.11729 12.6636 2.84332L7.33639 0.184764C6.79859 -0.0790616 5.93609 -0.0587674 5.41858 0.2355L1.02486 2.75199C0.456622 3.0767 0 3.86818 0 4.50745Z" fill="#FD683D"/>
</svg>
