<svg width="29" height="29" viewBox="0 0 29 29" fill="none" xmlns="http://www.w3.org/2000/svg">
<path d="M5.51265 16.6243L4.40695 14.7091C3.30567 12.8017 3.95645 10.3729 5.86392 9.27164L7.77906 8.16594" stroke="#A7A9B7" stroke-width="1.29501" stroke-linecap="round" stroke-linejoin="round"/>
<path d="M12.3754 5.51264L14.2905 4.40693C16.198 3.30566 18.6267 3.95644 19.728 5.86391L20.8337 7.77904" stroke="#A7A9B7" stroke-width="1.29501" stroke-linecap="round" stroke-linejoin="round"/>
<path d="M23.9297 13.1413L24.5931 14.2904C25.6944 16.1979 25.0436 18.6266 23.1361 19.7279L21.987 20.3913" stroke="#A7A9B7" stroke-width="1.29501" stroke-linecap="round" stroke-linejoin="round"/>
<path d="M16.6247 23.487L14.7095 24.5927C12.8021 25.694 10.3733 25.0432 9.27204 23.1357L8.16633 21.2206" stroke="#A7A9B7" stroke-width="1.29501" stroke-linecap="round" stroke-linejoin="round"/>
<path d="M17.2246 10.3735L19.436 14.2037C20.3206 15.7358 19.9968 16.9442 18.4647 17.8287L15.4005 19.5978C13.8684 20.4824 12.66 20.1586 11.7755 18.6265L9.56406 14.7963C8.6795 13.2642 9.00327 12.0558 10.5354 11.1713L13.5996 9.40215C15.1317 8.51758 16.34 8.84136 17.2246 10.3735Z" stroke="#A7A9B7" stroke-width="1.29501" stroke-linecap="round" stroke-linejoin="round"/>
<path d="M19.8624 11.4041L9.13764 17.596" stroke="#A7A9B7" stroke-width="1.29501" stroke-linecap="round" stroke-linejoin="round"/>
</svg>
