<svg width="15" height="15" viewBox="0 0 15 15" fill="none" xmlns="http://www.w3.org/2000/svg">
<path d="M2.49725 8.34706L5.16867 4.29223C6.97101 1.56832 8.60258 2.0055 8.79656 5.26432L8.8813 6.70289L10.0848 7.49556C12.81 9.29297 12.3715 10.9295 9.11268 11.1234L4.26899 11.4158C2.09568 11.5414 1.2969 10.1651 2.49725 8.34706ZM5.1069 9.21537L7.49175 7.84681C7.5855 7.79269 7.6451 7.70828 7.67019 7.61462C7.69529 7.52097 7.68588 7.41807 7.63175 7.32432C7.5271 7.14307 7.2905 7.07967 7.10925 7.18431L4.72441 8.55287C4.54316 8.65752 4.47976 8.89412 4.5844 9.07537C4.68905 9.25662 4.92565 9.32002 5.1069 9.21537Z" fill="white"/>
</svg>
